<svg xmlns="http://www.w3.org/2000/svg" width="96" height="128" viewBox="0 0 96 128"><defs>
<radialGradient id="glow"><stop offset="0" stop-color="#fff1bf" stop-opacity="0.85"/>
<stop offset="0.35" stop-color="#ffb43a" stop-opacity="0.45"/><stop offset="1" stop-color="#ffb43a" stop-opacity="0"/></radialGradient>
<radialGradient id="glass"><stop offset="0" stop-color="#fff1bf"/><stop offset="1" stop-color="#ffcf5a"/></radialGradient>
<radialGradient id="spectral"><stop offset="0" stop-color="#ffffff" stop-opacity="0.9"/>
<stop offset="0.5" stop-color="#bfe3ff" stop-opacity="0.55"/><stop offset="1" stop-color="#bfe3ff" stop-opacity="0"/></radialGradient>
<linearGradient id="skirt" x1="0" y1="0" x2="0" y2="1"><stop offset="0" stop-color="#22325a"/><stop offset="1" stop-color="#16213e"/></linearGradient>
</defs><g transform="translate(48 125)"><g transform="translate(-6 0) rotate(0 0 -50) scale(1)" opacity="1"><ellipse cx="-6.5" cy="-3.4" rx="5" ry="2.8" fill="#1c130d" stroke="#120c0a" stroke-width="1"/><ellipse cx="9.5" cy="-3.4" rx="5" ry="2.8" fill="#1c130d" stroke="#120c0a" stroke-width="1"/><path d="M-9,-45 L9,-45 Q18,-25 17,-5 Q0,-2 -17,-5 Q-18,-25 -9,-45 Z" fill="url(#skirt)" stroke="#120c0a" stroke-width="1.3" stroke-linejoin="round"/><path d="M-3.6,-41 Q-4.2,-25 -6.8,-4" fill="none" stroke="#16213e" stroke-width="1.4" opacity="0.9"/><path d="M2.16,-41 Q4.12,-25 4.08,-4" fill="none" stroke="#16213e" stroke-width="1.4" opacity="0.9"/><g transform="rotate(20 0 -45)"><path d="M-1.5,-71 L3.46,-57.37 L10.21,-45.68" fill="none" stroke="#120c0a" stroke-width="7.2" stroke-linecap="round" stroke-linejoin="round"/><path d="M-1.5,-71 L3.46,-57.37 L10.21,-45.68" fill="none" stroke="#35221a" stroke-width="5" stroke-linecap="round" stroke-linejoin="round"/><circle cx="10.21" cy="-45.68" r="2.9" fill="#5a3622" stroke="#120c0a" stroke-width="1"/><path d="M-11.65,-19.64 L12.14,-47.98 Q10.88,-54.26 7.54,-51.84" fill="none" stroke="#120c0a" stroke-width="4" stroke-linecap="round"/><path d="M-11.65,-19.64 L12.14,-47.98 Q10.88,-54.26 7.54,-51.84" fill="none" stroke="#6b4424" stroke-width="2.3" stroke-linecap="round"/><path d="M-9,-45 L9.5,-45 L10.5,-69 Q6,-75 0,-75 Q-7,-75 -10,-69 Z" fill="#4e3322" stroke="#120c0a" stroke-width="1.3" stroke-linejoin="round"/><path d="M-9.5,-45 L9.5,-45 L9,-42 L-9,-42 Z" fill="#35221a"/><path d="M-11,-70 Q0,-77 11,-70 L6,-58 L2,-63 L-6,-57 Z" fill="#735236" stroke="#120c0a" stroke-width="1.1" stroke-linejoin="round"/><g transform="rotate(0 2 -76)"><rect x="-0.5" y="-78" width="5" height="5" fill="#5a3622" stroke="#120c0a" stroke-width="0.9"/><ellipse cx="3" cy="-84" rx="8" ry="8.8" fill="#5a3622" stroke="#120c0a" stroke-width="1.2"/><path d="M8,-83 Q10.5,-81 8.5,-79.5" fill="none" stroke="#120c0a" stroke-width="0.9"/><circle cx="7" cy="-84.5" r="0.9" fill="#120c0a"/><path d="M4,-80 Q7,-78 9.5,-79.5" fill="none" stroke="#7a4d31" stroke-width="1"/><path d="M10.5,-87 Q10,-96 1,-95.5 Q-7,-95 -6.5,-85 Q-6,-79 -2,-80 Q0,-87 4,-88 Z" fill="#9a4a2a" stroke="#120c0a" stroke-width="1.2" stroke-linejoin="round"/><path d="M-4,-93 Q3,-89 9.5,-89" fill="none" stroke="#6e2f1b" stroke-width="1.2"/><ellipse cx="-7.5" cy="-91" rx="3.3" ry="2.6" fill="#9a4a2a" stroke="#120c0a" stroke-width="1"/></g><path d="M3,-71 L16.63,-75.96 L25.3,-86.3" fill="none" stroke="#120c0a" stroke-width="7.2" stroke-linecap="round" stroke-linejoin="round"/><path d="M3,-71 L16.63,-75.96 L25.3,-86.3" fill="none" stroke="#4e3322" stroke-width="5" stroke-linecap="round" stroke-linejoin="round"/><circle cx="25.3" cy="-86.3" r="2.9" fill="#5a3622" stroke="#120c0a" stroke-width="1"/><g transform="rotate(-20 25.3 -86.3)"><path d="M25.3,-86.3 L25.3,-82.8" stroke="#120c0a" stroke-width="1.3"/><path d="M22.8,-80.8 L27.8,-80.8 L26.8,-82.8 L23.8,-82.8 Z" fill="#2b1d12" stroke="#120c0a" stroke-width="0.8"/><rect x="21.7" y="-80.8" width="7.2" height="8.5" rx="1.2" fill="url(#glass)" stroke="#2b1d12" stroke-width="1.3"/><path d="M25.3,-80.8 L25.3,-72.3" stroke="#2b1d12" stroke-width="0.8"/><rect x="22.3" y="-72.3" width="6" height="1.6" fill="#2b1d12"/></g><circle cx="25.3" cy="-76.8" r="18.8" fill="url(#glow)" opacity="0.91"/></g></g></g></svg>
