<svg xmlns="http://www.w3.org/2000/svg" width="96" height="128" viewBox="0 0 96 128"><defs>
<radialGradient id="glow"><stop offset="0" stop-color="#fff1bf" stop-opacity="0.85"/>
<stop offset="0.35" stop-color="#ffb43a" stop-opacity="0.45"/><stop offset="1" stop-color="#ffb43a" stop-opacity="0"/></radialGradient>
<radialGradient id="glass"><stop offset="0" stop-color="#fff1bf"/><stop offset="1" stop-color="#ffcf5a"/></radialGradient>
<radialGradient id="spectral"><stop offset="0" stop-color="#ffffff" stop-opacity="0.9"/>
<stop offset="0.5" stop-color="#bfe3ff" stop-opacity="0.55"/><stop offset="1" stop-color="#bfe3ff" stop-opacity="0"/></radialGradient>
<linearGradient id="skirt" x1="0" y1="0" x2="0" y2="1"><stop offset="0" stop-color="#22325a"/><stop offset="1" stop-color="#16213e"/></linearGradient>
</defs><g transform="translate(48 125)"><g transform="rotate(80 -24 -9)"><path d="M-24,-9 L-24,-5.5" stroke="#120c0a" stroke-width="1.3"/><path d="M-26.5,-3.5 L-21.5,-3.5 L-22.5,-5.5 L-25.5,-5.5 Z" fill="#2b1d12" stroke="#120c0a" stroke-width="0.8"/><rect x="-27.6" y="-3.5" width="7.2" height="8.5" rx="1.2" fill="url(#glass)" stroke="#2b1d12" stroke-width="1.3"/><path d="M-24,-3.5 L-24,5" stroke="#2b1d12" stroke-width="0.8"/><rect x="-27" y="5" width="6" height="1.6" fill="#2b1d12"/></g><g transform="translate(36 -10) rotate(-86 0 -4) scale(0.82)" opacity="1"><ellipse cx="-3.5" cy="-3.4" rx="5" ry="2.8" fill="#1c130d" stroke="#120c0a" stroke-width="1"/><ellipse cx="6.5" cy="-3.4" rx="5" ry="2.8" fill="#1c130d" stroke="#120c0a" stroke-width="1"/><path d="M-9,-45 L9,-45 Q17,-25 16,-5 Q0,-2 -16,-5 Q-17,-25 -9,-45 Z" fill="url(#skirt)" stroke="#120c0a" stroke-width="1.3" stroke-linejoin="round"/><path d="M-3.6,-41 Q-4,-25 -6.4,-4" fill="none" stroke="#16213e" stroke-width="1.4" opacity="0.9"/><path d="M2.16,-41 Q4,-25 3.84,-4" fill="none" stroke="#16213e" stroke-width="1.4" opacity="0.9"/><g transform="rotate(0 0 -45)"><path d="M-1.5,-71 L12.78,-68.48 L24.47,-61.73" fill="none" stroke="#120c0a" stroke-width="7.2" stroke-linecap="round" stroke-linejoin="round"/><path d="M-1.5,-71 L12.78,-68.48 L24.47,-61.73" fill="none" stroke="#35221a" stroke-width="5" stroke-linecap="round" stroke-linejoin="round"/><circle cx="24.47" cy="-61.73" r="2.9" fill="#5a3622" stroke="#120c0a" stroke-width="1"/><path d="M46.14,-57.91 L21.52,-62.25 Q16.71,-58.02 20.47,-56.34" fill="none" stroke="#120c0a" stroke-width="4" stroke-linecap="round"/><path d="M46.14,-57.91 L21.52,-62.25 Q16.71,-58.02 20.47,-56.34" fill="none" stroke="#6b4424" stroke-width="2.3" stroke-linecap="round"/><path d="M-9,-45 L9.5,-45 L10.5,-69 Q6,-75 0,-75 Q-7,-75 -10,-69 Z" fill="#4e3322" stroke="#120c0a" stroke-width="1.3" stroke-linejoin="round"/><path d="M-9.5,-45 L9.5,-45 L9,-42 L-9,-42 Z" fill="#35221a"/><path d="M-11,-70 Q0,-77 11,-70 L6,-58 L2,-63 L-6,-57 Z" fill="#735236" stroke="#120c0a" stroke-width="1.1" stroke-linejoin="round"/><g transform="rotate(0 2 -76)"><rect x="-0.5" y="-78" width="5" height="5" fill="#5a3622" stroke="#120c0a" stroke-width="0.9"/><ellipse cx="3" cy="-84" rx="8" ry="8.8" fill="#5a3622" stroke="#120c0a" stroke-width="1.2"/><path d="M8,-83 Q10.5,-81 8.5,-79.5" fill="none" stroke="#120c0a" stroke-width="0.9"/><circle cx="7" cy="-84.5" r="0.9" fill="#120c0a"/><path d="M4,-80 Q7,-78 9.5,-79.5" fill="none" stroke="#7a4d31" stroke-width="1"/><path d="M10.5,-87 Q10,-96 1,-95.5 Q-7,-95 -6.5,-85 Q-6,-79 -2,-80 Q0,-87 4,-88 Z" fill="#9a4a2a" stroke="#120c0a" stroke-width="1.2" stroke-linejoin="round"/><path d="M-4,-93 Q3,-89 9.5,-89" fill="none" stroke="#6e2f1b" stroke-width="1.2"/><ellipse cx="-7.5" cy="-91" rx="3.3" ry="2.6" fill="#9a4a2a" stroke="#120c0a" stroke-width="1"/></g><path d="M3,-71 L17.5,-71 L30.19,-66.38" fill="none" stroke="#120c0a" stroke-width="7.2" stroke-linecap="round" stroke-linejoin="round"/><path d="M3,-71 L17.5,-71 L30.19,-66.38" fill="none" stroke="#4e3322" stroke-width="5" stroke-linecap="round" stroke-linejoin="round"/><circle cx="30.19" cy="-66.38" r="2.9" fill="#5a3622" stroke="#120c0a" stroke-width="1"/></g></g></g></svg>
