<svg xmlns="http://www.w3.org/2000/svg" width="192" height="192" viewBox="192 576 192 192"><defs>
<radialGradient id="glow"><stop offset="0" stop-color="#fff1bf" stop-opacity="0.85"/>
<stop offset="0.35" stop-color="#ffb43a" stop-opacity="0.45"/><stop offset="1" stop-color="#ffb43a" stop-opacity="0"/></radialGradient>
<radialGradient id="glass"><stop offset="0" stop-color="#fff1bf"/><stop offset="1" stop-color="#ffcf5a"/></radialGradient>
<radialGradient id="spectral"><stop offset="0" stop-color="#ffffff" stop-opacity="0.9"/>
<stop offset="0.5" stop-color="#bfe3ff" stop-opacity="0.55"/><stop offset="1" stop-color="#bfe3ff" stop-opacity="0"/></radialGradient>
<linearGradient id="skirt" x1="0" y1="0" x2="0" y2="1"><stop offset="0" stop-color="#22325a"/><stop offset="1" stop-color="#16213e"/></linearGradient>
</defs><path d="M200,706 L376,706 M200,716 L376,716" stroke="#ffcf5a" stroke-width="2.4" opacity="0.55"/><rect x="206" y="703" width="4" height="16" fill="#2b1d12" opacity="0.55"/><rect x="224" y="703" width="4" height="16" fill="#2b1d12" opacity="0.55"/><rect x="242" y="703" width="4" height="16" fill="#2b1d12" opacity="0.55"/><rect x="260" y="703" width="4" height="16" fill="#2b1d12" opacity="0.55"/><rect x="278" y="703" width="4" height="16" fill="#2b1d12" opacity="0.55"/><rect x="296" y="703" width="4" height="16" fill="#2b1d12" opacity="0.55"/><rect x="314" y="703" width="4" height="16" fill="#2b1d12" opacity="0.55"/><rect x="332" y="703" width="4" height="16" fill="#2b1d12" opacity="0.55"/><rect x="350" y="703" width="4" height="16" fill="#2b1d12" opacity="0.55"/><rect x="368" y="703" width="4" height="16" fill="#2b1d12" opacity="0.55"/><circle cx="218" cy="684.95" r="20" fill="url(#glow)" opacity="0.64"/><rect x="213" y="677.95" width="10" height="14" rx="2" fill="url(#glass)" stroke="#2b1d12" stroke-width="1.6" opacity="0.64"/><circle cx="246" cy="684.32" r="20" fill="url(#glow)" opacity="0.73"/><rect x="241" y="677.32" width="10" height="14" rx="2" fill="url(#glass)" stroke="#2b1d12" stroke-width="1.6" opacity="0.73"/><circle cx="274" cy="687.99" r="20" fill="url(#glow)" opacity="0.82"/><rect x="269" y="680.99" width="10" height="14" rx="2" fill="url(#glass)" stroke="#2b1d12" stroke-width="1.6" opacity="0.82"/><circle cx="302" cy="693.18" r="20" fill="url(#glow)" opacity="0.91"/><rect x="297" y="686.18" width="10" height="14" rx="2" fill="url(#glass)" stroke="#2b1d12" stroke-width="1.6" opacity="0.91"/><circle cx="330" cy="695.96" r="20" fill="url(#glow)" opacity="1"/><rect x="325" y="688.96" width="10" height="14" rx="2" fill="url(#glass)" stroke="#2b1d12" stroke-width="1.6" opacity="1"/><path d="M204,682 Q288,662 352,680" fill="none" stroke="#fff1bf" stroke-width="2" opacity="0.5"/></svg>
