<svg xmlns="http://www.w3.org/2000/svg" width="96" height="128" viewBox="0 0 96 128"><defs>
<radialGradient id="glow"><stop offset="0" stop-color="#fff1bf" stop-opacity="0.85"/>
<stop offset="0.35" stop-color="#ffb43a" stop-opacity="0.45"/><stop offset="1" stop-color="#ffb43a" stop-opacity="0"/></radialGradient>
<radialGradient id="glass"><stop offset="0" stop-color="#fff1bf"/><stop offset="1" stop-color="#ffcf5a"/></radialGradient>
<radialGradient id="spectral"><stop offset="0" stop-color="#ffffff" stop-opacity="0.9"/>
<stop offset="0.5" stop-color="#bfe3ff" stop-opacity="0.55"/><stop offset="1" stop-color="#bfe3ff" stop-opacity="0"/></radialGradient>
<linearGradient id="skirt" x1="0" y1="0" x2="0" y2="1"><stop offset="0" stop-color="#22325a"/><stop offset="1" stop-color="#16213e"/></linearGradient>
</defs><g transform="translate(48 125)"><g transform="translate(0 0) rotate(0 0 -50) scale(1)" opacity="1"><ellipse cx="-5.5" cy="-3.4" rx="5" ry="2.8" fill="#1c130d" stroke="#120c0a" stroke-width="1"/><ellipse cx="9.5" cy="-3.4" rx="5" ry="2.8" fill="#1c130d" stroke="#120c0a" stroke-width="1"/><path d="M-9,-36.2 L9,-36.2 Q18.6,-20.6 17.6,-5 Q0,-2 -17.6,-5 Q-18.6,-20.6 -9,-36.2 Z" fill="url(#skirt)" stroke="#120c0a" stroke-width="1.3" stroke-linejoin="round"/><path d="M-3.6,-32.2 Q-4.32,-20.6 -7.04,-4" fill="none" stroke="#16213e" stroke-width="1.4" opacity="0.9"/><path d="M2.16,-32.2 Q4.19,-20.6 4.22,-4" fill="none" stroke="#16213e" stroke-width="1.4" opacity="0.9"/><g transform="rotate(20 0 -36.2)"><path d="M-1.5,-62.2 L6.18,-49.9 L16.06,-40.7" fill="none" stroke="#120c0a" stroke-width="7.2" stroke-linecap="round" stroke-linejoin="round"/><path d="M-1.5,-62.2 L6.18,-49.9 L16.06,-40.7" fill="none" stroke="#35221a" stroke-width="5" stroke-linecap="round" stroke-linejoin="round"/><circle cx="16.06" cy="-40.7" r="2.9" fill="#5a3622" stroke="#120c0a" stroke-width="1"/><path d="M17.31,-4.72 L15.95,-43.69 Q10.82,-47.52 9.96,-43.49" fill="none" stroke="#120c0a" stroke-width="4" stroke-linecap="round"/><path d="M17.31,-4.72 L15.95,-43.69 Q10.82,-47.52 9.96,-43.49" fill="none" stroke="#6b4424" stroke-width="2.3" stroke-linecap="round"/><path d="M-9,-36.2 L9.5,-36.2 L10.5,-60.2 Q6,-66.2 0,-66.2 Q-7,-66.2 -10,-60.2 Z" fill="#4e3322" stroke="#120c0a" stroke-width="1.3" stroke-linejoin="round"/><path d="M-9.5,-36.2 L9.5,-36.2 L9,-33.2 L-9,-33.2 Z" fill="#35221a"/><path d="M-11,-61.2 Q0,-68.2 11,-61.2 L6,-49.2 L2,-54.2 L-6,-48.2 Z" fill="#735236" stroke="#120c0a" stroke-width="1.1" stroke-linejoin="round"/><g transform="rotate(0 2 -67.2)"><rect x="-0.5" y="-69.2" width="5" height="5" fill="#5a3622" stroke="#120c0a" stroke-width="0.9"/><ellipse cx="3" cy="-75.2" rx="8" ry="8.8" fill="#5a3622" stroke="#120c0a" stroke-width="1.2"/><path d="M8,-74.2 Q10.5,-72.2 8.5,-70.7" fill="none" stroke="#120c0a" stroke-width="0.9"/><circle cx="7" cy="-75.7" r="0.9" fill="#120c0a"/><path d="M4,-71.2 Q7,-69.2 9.5,-70.7" fill="none" stroke="#7a4d31" stroke-width="1"/><path d="M10.5,-78.2 Q10,-87.2 1,-86.7 Q-7,-86.2 -6.5,-76.2 Q-6,-70.2 -2,-71.2 Q0,-78.2 4,-79.2 Z" fill="#9a4a2a" stroke="#120c0a" stroke-width="1.2" stroke-linejoin="round"/><path d="M-4,-84.2 Q3,-80.2 9.5,-80.2" fill="none" stroke="#6e2f1b" stroke-width="1.2"/><ellipse cx="-7.5" cy="-82.2" rx="3.3" ry="2.6" fill="#9a4a2a" stroke="#120c0a" stroke-width="1"/></g><path d="M3,-62.2 L12.7,-51.42 L25.54,-47.25" fill="none" stroke="#120c0a" stroke-width="7.2" stroke-linecap="round" stroke-linejoin="round"/><path d="M3,-62.2 L12.7,-51.42 L25.54,-47.25" fill="none" stroke="#4e3322" stroke-width="5" stroke-linecap="round" stroke-linejoin="round"/><circle cx="25.54" cy="-47.25" r="2.9" fill="#5a3622" stroke="#120c0a" stroke-width="1"/><g transform="rotate(-20 25.54 -47.25)"><path d="M25.54,-47.25 L25.54,-43.75" stroke="#120c0a" stroke-width="1.3"/><path d="M23.04,-41.75 L28.04,-41.75 L27.04,-43.75 L24.04,-43.75 Z" fill="#2b1d12" stroke="#120c0a" stroke-width="0.8"/><rect x="21.94" y="-41.75" width="7.2" height="8.5" rx="1.2" fill="url(#glass)" stroke="#2b1d12" stroke-width="1.3"/><path d="M25.54,-41.75 L25.54,-33.25" stroke="#2b1d12" stroke-width="0.8"/><rect x="22.54" y="-33.25" width="6" height="1.6" fill="#2b1d12"/></g><circle cx="25.54" cy="-37.75" r="16.4" fill="url(#glow)" opacity="0.77"/></g></g></g></svg>
