<svg xmlns="http://www.w3.org/2000/svg" width="96" height="128" viewBox="0 0 96 128"><path d="M50.5 43.8 L45.5 59.0" stroke="#241708" stroke-width="8.7" stroke-linecap="round" stroke-opacity="1.0"/><path d="M50.5 43.8 L45.5 59.0" stroke="#4A3018" stroke-width="6.5" stroke-linecap="round" stroke-opacity="1.0"/><path d="M45.5 59.0 L37.3 70.3" stroke="#241708" stroke-width="7.7" stroke-linecap="round" stroke-opacity="1.0"/><path d="M45.5 59.0 L37.3 70.3" stroke="#4A3018" stroke-width="5.5" stroke-linecap="round" stroke-opacity="1.0"/><circle cx="37.3" cy="70.3" r="3.0" fill="#C09A6E" stroke="#241708" stroke-width="1.6" fill-opacity="1.0" stroke-opacity="1.0"/><path d="M43.5 78.0 L53.8 97.4" stroke="#241708" stroke-width="10.2" stroke-linecap="round" stroke-opacity="1.0"/><path d="M43.5 78.0 L53.8 97.4" stroke="#3A2C1E" stroke-width="8.0" stroke-linecap="round" stroke-opacity="1.0"/><path d="M53.8 97.4 L71.6 108.6" stroke="#241708" stroke-width="8.7" stroke-linecap="round" stroke-opacity="1.0"/><path d="M53.8 97.4 L71.6 108.6" stroke="#3A2C1E" stroke-width="6.5" stroke-linecap="round" stroke-opacity="1.0"/><path d="M70.1 109.1 L80.3 106.1" stroke="#241708" stroke-width="7.5" stroke-linecap="round" stroke-opacity="1.0"/><path d="M70.1 109.1 L80.3 106.1" stroke="#332414" stroke-width="5.5" stroke-linecap="round" stroke-opacity="1.0"/><path d="M48.5 78.0 L42.4 99.1" stroke="#241708" stroke-width="10.9" stroke-linecap="round" stroke-opacity="1.0"/><path d="M48.5 78.0 L42.4 99.1" stroke="#463726" stroke-width="8.5" stroke-linecap="round" stroke-opacity="1.0"/><path d="M42.4 99.1 L31.3 117.0" stroke="#241708" stroke-width="9.4" stroke-linecap="round" stroke-opacity="1.0"/><path d="M42.4 99.1 L31.3 117.0" stroke="#463726" stroke-width="7.0" stroke-linecap="round" stroke-opacity="1.0"/><path d="M29.8 117.5 L39.8 120.0" stroke="#241708" stroke-width="7.5" stroke-linecap="round" stroke-opacity="1.0"/><path d="M29.8 117.5 L39.8 120.0" stroke="#332414" stroke-width="5.5" stroke-linecap="round" stroke-opacity="1.0"/><path d="M42.0 77.0 L42.8 66.5" stroke="#241708" stroke-width="9.0" stroke-linecap="round" stroke-opacity="1.0"/><path d="M42.0 77.0 L42.8 66.5" stroke="#4A3018" stroke-width="7.0" stroke-linecap="round" stroke-opacity="1.0"/><path d="M46.0 78.5 L53.5 41.8" stroke="#241708" stroke-width="22.8" stroke-linecap="round" stroke-opacity="1.0"/><path d="M46.0 78.5 L53.5 41.8" stroke="#6E4E30" stroke-width="20.0" stroke-linecap="round" stroke-opacity="1.0"/><path d="M53.7 65.0 L55.6 54.2" stroke="#241708" stroke-width="8.1" stroke-linecap="round" stroke-opacity="1.0"/><path d="M53.7 65.0 L55.6 54.2" stroke="#D8C9A0" stroke-width="6.5" stroke-linecap="round" stroke-opacity="1.0"/><circle cx="58.5" cy="43.3" r="3.2" fill="#F2EDE2" fill-opacity="1.0"/><path d="M58.5 43.3 L60.3 51.6" stroke="#241708" stroke-width="4.4" stroke-linecap="round" stroke-opacity="1.0"/><path d="M58.5 43.3 L60.3 51.6" stroke="#7A2E22" stroke-width="3.0" stroke-linecap="round" stroke-opacity="1.0"/><path d="M54.5 42.8 L52.6 57.2" stroke="#4A3018" stroke-width="2.2" stroke-linecap="round"/><path d="M53.5 41.8 L54.8 35.4" stroke="#241708" stroke-width="8.0" stroke-linecap="round" stroke-opacity="1.0"/><path d="M53.5 41.8 L54.8 35.4" stroke="#E8C49A" stroke-width="6.0" stroke-linecap="round" stroke-opacity="1.0"/><circle cx="56.4" cy="28.1" r="9.0" fill="#E8C49A" stroke="#241708" stroke-width="2.0" fill-opacity="1.0" stroke-opacity="1.0"/><circle cx="51.9" cy="20.1" r="7.5" fill="#ECF1F8" fill-opacity="0.97"/><circle cx="46.4" cy="24.6" r="5.8" fill="#ECF1F8" fill-opacity="0.97"/><circle cx="58.4" cy="18.1" r="6.2" fill="#ECF1F8" fill-opacity="0.97"/><circle cx="63.0" cy="20.5" r="4.6" fill="#ECF1F8" fill-opacity="0.97"/><circle cx="43.9" cy="29.6" r="4.2" fill="#ECF1F8" fill-opacity="0.97"/><path d="M47.4 22.1 Q52.4 17.1 58.4 19.1" fill="none" stroke="#B8C4D8" stroke-width="1.4" stroke-opacity="0.8"/><circle cx="61.3" cy="25.7" r="1.55" fill="#241708"/><path d="M58.7 22.9 L63.3 22.3" stroke="#B8C4D8" stroke-width="1.8" stroke-linecap="round"/><path d="M64.5 26.5 Q66.5 28.3 64.3 29.9" fill="none" stroke="#C09A6E" stroke-width="1.6" stroke-linecap="round"/><path d="M56.4 31.3 Q62.0 27.9 66.6 30.5 Q65.4 33.5 62.0 32.7 Q58.6 33.7 56.4 31.3 Z" fill="#ECF1F8" stroke="#8A94A8" stroke-width="1.2"/><path d="M56.0 43.8 L59.9 59.3" stroke="#241708" stroke-width="9.6" stroke-linecap="round" stroke-opacity="1.0"/><path d="M56.0 43.8 L59.9 59.3" stroke="#6E4E30" stroke-width="7.0" stroke-linecap="round" stroke-opacity="1.0"/><path d="M59.9 59.3 L69.2 69.7" stroke="#241708" stroke-width="8.6" stroke-linecap="round" stroke-opacity="1.0"/><path d="M59.9 59.3 L69.2 69.7" stroke="#6E4E30" stroke-width="6.0" stroke-linecap="round" stroke-opacity="1.0"/><circle cx="69.2" cy="69.7" r="3.6" fill="#E8C49A" stroke="#241708" stroke-width="1.8" fill-opacity="1.0" stroke-opacity="1.0"/></svg>