<svg xmlns="http://www.w3.org/2000/svg" width="96" height="128" viewBox="0 0 96 128"><path d="M32.0 112.0 L32.0 96.0" stroke="#7FE4FF" stroke-width="1.8" stroke-opacity="0.4" stroke-linecap="round"/><path d="M46.0 112.0 L46.0 96.0" stroke="#7FE4FF" stroke-width="1.8" stroke-opacity="0.4" stroke-linecap="round"/><path d="M59.0 112.0 L59.0 96.0" stroke="#7FE4FF" stroke-width="1.8" stroke-opacity="0.4" stroke-linecap="round"/><path d="M40.5 48.1 L51.6 36.6" stroke="#241708" stroke-width="8.7" stroke-linecap="round" stroke-opacity="1.0"/><path d="M40.5 48.1 L51.6 36.6" stroke="#4A3018" stroke-width="6.5" stroke-linecap="round" stroke-opacity="1.0"/><path d="M51.6 36.6 L62.9 28.3" stroke="#241708" stroke-width="7.7" stroke-linecap="round" stroke-opacity="1.0"/><path d="M51.6 36.6 L62.9 28.3" stroke="#4A3018" stroke-width="5.5" stroke-linecap="round" stroke-opacity="1.0"/><circle cx="62.9" cy="28.3" r="3.0" fill="#C09A6E" stroke="#241708" stroke-width="1.6" fill-opacity="1.0" stroke-opacity="1.0"/><path d="M43.5 83.0 L38.9 104.5" stroke="#241708" stroke-width="10.2" stroke-linecap="round" stroke-opacity="1.0"/><path d="M43.5 83.0 L38.9 104.5" stroke="#3A2C1E" stroke-width="8.0" stroke-linecap="round" stroke-opacity="1.0"/><path d="M38.9 104.5 L36.0 125.3" stroke="#241708" stroke-width="8.7" stroke-linecap="round" stroke-opacity="1.0"/><path d="M38.9 104.5 L36.0 125.3" stroke="#3A2C1E" stroke-width="6.5" stroke-linecap="round" stroke-opacity="1.0"/><path d="M34.5 125.8 L45.0 124.4" stroke="#241708" stroke-width="7.5" stroke-linecap="round" stroke-opacity="1.0"/><path d="M34.5 125.8 L45.0 124.4" stroke="#332414" stroke-width="5.5" stroke-linecap="round" stroke-opacity="1.0"/><path d="M48.5 83.0 L53.8 104.3" stroke="#241708" stroke-width="10.9" stroke-linecap="round" stroke-opacity="1.0"/><path d="M48.5 83.0 L53.8 104.3" stroke="#463726" stroke-width="8.5" stroke-linecap="round" stroke-opacity="1.0"/><path d="M53.8 104.3 L56.0 125.2" stroke="#241708" stroke-width="9.4" stroke-linecap="round" stroke-opacity="1.0"/><path d="M53.8 104.3 L56.0 125.2" stroke="#463726" stroke-width="7.0" stroke-linecap="round" stroke-opacity="1.0"/><path d="M54.5 125.7 L65.0 124.3" stroke="#241708" stroke-width="7.5" stroke-linecap="round" stroke-opacity="1.0"/><path d="M54.5 125.7 L65.0 124.3" stroke="#332414" stroke-width="5.5" stroke-linecap="round" stroke-opacity="1.0"/><path d="M42.0 82.0 L41.1 72.1" stroke="#241708" stroke-width="9.0" stroke-linecap="round" stroke-opacity="1.0"/><path d="M42.0 82.0 L41.1 72.1" stroke="#4A3018" stroke-width="7.0" stroke-linecap="round" stroke-opacity="1.0"/><path d="M46.0 83.5 L43.5 46.1" stroke="#241708" stroke-width="22.8" stroke-linecap="round" stroke-opacity="1.0"/><path d="M46.0 83.5 L43.5 46.1" stroke="#6E4E30" stroke-width="20.0" stroke-linecap="round" stroke-opacity="1.0"/><path d="M50.3 69.8 L49.4 58.7" stroke="#241708" stroke-width="8.1" stroke-linecap="round" stroke-opacity="1.0"/><path d="M50.3 69.8 L49.4 58.7" stroke="#D8C9A0" stroke-width="6.5" stroke-linecap="round" stroke-opacity="1.0"/><circle cx="48.5" cy="47.6" r="3.2" fill="#F2EDE2" fill-opacity="1.0"/><path d="M48.5 47.6 L50.3 55.9" stroke="#241708" stroke-width="4.4" stroke-linecap="round" stroke-opacity="1.0"/><path d="M48.5 47.6 L50.3 55.9" stroke="#7A2E22" stroke-width="3.0" stroke-linecap="round" stroke-opacity="1.0"/><path d="M44.5 47.1 L46.4 61.7" stroke="#4A3018" stroke-width="2.2" stroke-linecap="round"/><path d="M43.5 46.1 L43.0 39.6" stroke="#241708" stroke-width="8.0" stroke-linecap="round" stroke-opacity="1.0"/><path d="M43.5 46.1 L43.0 39.6" stroke="#E8C49A" stroke-width="6.0" stroke-linecap="round" stroke-opacity="1.0"/><circle cx="42.5" cy="32.1" r="9.0" fill="#E8C49A" stroke="#241708" stroke-width="2.0" fill-opacity="1.0" stroke-opacity="1.0"/><circle cx="38.0" cy="24.1" r="7.5" fill="#ECF1F8" fill-opacity="0.97"/><circle cx="32.5" cy="28.6" r="5.8" fill="#ECF1F8" fill-opacity="0.97"/><circle cx="44.5" cy="22.1" r="6.2" fill="#ECF1F8" fill-opacity="0.97"/><circle cx="49.1" cy="24.5" r="4.6" fill="#ECF1F8" fill-opacity="0.97"/><circle cx="30.0" cy="33.6" r="4.2" fill="#ECF1F8" fill-opacity="0.97"/><path d="M33.5 26.1 Q38.5 21.1 44.5 23.1" fill="none" stroke="#B8C4D8" stroke-width="1.4" stroke-opacity="0.8"/><circle cx="47.4" cy="29.7" r="1.55" fill="#241708"/><path d="M44.8 26.9 L49.4 26.3" stroke="#B8C4D8" stroke-width="1.8" stroke-linecap="round"/><path d="M50.6 30.5 Q52.6 32.3 50.4 33.9" fill="none" stroke="#C09A6E" stroke-width="1.6" stroke-linecap="round"/><path d="M42.5 35.3 Q48.1 31.9 52.7 34.5 Q51.5 37.5 48.1 36.7 Q44.7 37.7 42.5 35.3 Z" fill="#ECF1F8" stroke="#8A94A8" stroke-width="1.2"/><path d="M46.0 48.1 L54.5 34.5" stroke="#241708" stroke-width="9.6" stroke-linecap="round" stroke-opacity="1.0"/><path d="M46.0 48.1 L54.5 34.5" stroke="#6E4E30" stroke-width="7.0" stroke-linecap="round" stroke-opacity="1.0"/><path d="M54.5 34.5 L63.8 24.1" stroke="#241708" stroke-width="8.6" stroke-linecap="round" stroke-opacity="1.0"/><path d="M54.5 34.5 L63.8 24.1" stroke="#6E4E30" stroke-width="6.0" stroke-linecap="round" stroke-opacity="1.0"/><circle cx="63.8" cy="24.1" r="3.6" fill="#E8C49A" stroke="#241708" stroke-width="1.8" fill-opacity="1.0" stroke-opacity="1.0"/></svg>