<svg xmlns="http://www.w3.org/2000/svg" width="96" height="128" viewBox="0 0 96 128"><path d="M39.9 45.1 L33.4 59.8" stroke="#241708" stroke-width="8.7" stroke-linecap="round" stroke-opacity="1.0"/><path d="M39.9 45.1 L33.4 59.8" stroke="#4A3018" stroke-width="6.5" stroke-linecap="round" stroke-opacity="1.0"/><path d="M33.4 59.8 L19.7 56.8" stroke="#241708" stroke-width="7.7" stroke-linecap="round" stroke-opacity="1.0"/><path d="M33.4 59.8 L19.7 56.8" stroke="#4A3018" stroke-width="5.5" stroke-linecap="round" stroke-opacity="1.0"/><circle cx="19.7" cy="56.8" r="3.0" fill="#C09A6E" stroke="#241708" stroke-width="1.6" fill-opacity="1.0" stroke-opacity="1.0"/><path d="M43.5 80.0 L38.2 101.3" stroke="#241708" stroke-width="10.2" stroke-linecap="round" stroke-opacity="1.0"/><path d="M43.5 80.0 L38.2 101.3" stroke="#3A2C1E" stroke-width="8.0" stroke-linecap="round" stroke-opacity="1.0"/><path d="M38.2 101.3 L36.3 122.3" stroke="#241708" stroke-width="8.7" stroke-linecap="round" stroke-opacity="1.0"/><path d="M38.2 101.3 L36.3 122.3" stroke="#3A2C1E" stroke-width="6.5" stroke-linecap="round" stroke-opacity="1.0"/><path d="M34.8 122.8 L45.3 121.3" stroke="#241708" stroke-width="7.5" stroke-linecap="round" stroke-opacity="1.0"/><path d="M34.8 122.8 L45.3 121.3" stroke="#332414" stroke-width="5.5" stroke-linecap="round" stroke-opacity="1.0"/><path d="M48.5 80.0 L53.1 101.5" stroke="#241708" stroke-width="10.9" stroke-linecap="round" stroke-opacity="1.0"/><path d="M48.5 80.0 L53.1 101.5" stroke="#463726" stroke-width="8.5" stroke-linecap="round" stroke-opacity="1.0"/><path d="M53.1 101.5 L54.2 122.5" stroke="#241708" stroke-width="9.4" stroke-linecap="round" stroke-opacity="1.0"/><path d="M53.1 101.5 L54.2 122.5" stroke="#463726" stroke-width="7.0" stroke-linecap="round" stroke-opacity="1.0"/><path d="M52.7 123.0 L63.1 121.5" stroke="#241708" stroke-width="7.5" stroke-linecap="round" stroke-opacity="1.0"/><path d="M52.7 123.0 L63.1 121.5" stroke="#332414" stroke-width="5.5" stroke-linecap="round" stroke-opacity="1.0"/><path d="M42.0 79.0 L42.8 68.5" stroke="#241708" stroke-width="9.0" stroke-linecap="round" stroke-opacity="1.0"/><path d="M42.0 79.0 L42.8 68.5" stroke="#4A3018" stroke-width="7.0" stroke-linecap="round" stroke-opacity="1.0"/><path d="M46.0 80.5 L42.9 43.1" stroke="#241708" stroke-width="22.8" stroke-linecap="round" stroke-opacity="1.0"/><path d="M46.0 80.5 L42.9 43.1" stroke="#6E4E30" stroke-width="20.0" stroke-linecap="round" stroke-opacity="1.0"/><path d="M50.1 66.8 L49.1 55.8" stroke="#241708" stroke-width="8.1" stroke-linecap="round" stroke-opacity="1.0"/><path d="M50.1 66.8 L49.1 55.8" stroke="#D8C9A0" stroke-width="6.5" stroke-linecap="round" stroke-opacity="1.0"/><circle cx="47.9" cy="44.6" r="3.2" fill="#F2EDE2" fill-opacity="1.0"/><path d="M47.9 44.6 L49.6 53.0" stroke="#241708" stroke-width="4.4" stroke-linecap="round" stroke-opacity="1.0"/><path d="M47.9 44.6 L49.6 53.0" stroke="#7A2E22" stroke-width="3.0" stroke-linecap="round" stroke-opacity="1.0"/><path d="M43.9 44.1 L46.1 58.8" stroke="#4A3018" stroke-width="2.2" stroke-linecap="round"/><path d="M42.9 43.1 L41.8 36.7" stroke="#241708" stroke-width="8.0" stroke-linecap="round" stroke-opacity="1.0"/><path d="M42.9 43.1 L41.8 36.7" stroke="#E8C49A" stroke-width="6.0" stroke-linecap="round" stroke-opacity="1.0"/><circle cx="40.7" cy="29.9" r="9.0" fill="#E8C49A" stroke="#241708" stroke-width="2.0" fill-opacity="1.0" stroke-opacity="1.0"/><circle cx="36.2" cy="21.9" r="7.5" fill="#ECF1F8" fill-opacity="0.97"/><circle cx="30.7" cy="26.4" r="5.8" fill="#ECF1F8" fill-opacity="0.97"/><circle cx="42.7" cy="19.9" r="6.2" fill="#ECF1F8" fill-opacity="0.97"/><circle cx="47.3" cy="22.3" r="4.6" fill="#ECF1F8" fill-opacity="0.97"/><circle cx="28.2" cy="31.4" r="4.2" fill="#ECF1F8" fill-opacity="0.97"/><path d="M31.7 23.9 Q36.7 18.9 42.7 20.9" fill="none" stroke="#B8C4D8" stroke-width="1.4" stroke-opacity="0.8"/><circle cx="45.6" cy="27.5" r="1.55" fill="#241708"/><path d="M43.0 24.7 L47.6 24.1" stroke="#B8C4D8" stroke-width="1.8" stroke-linecap="round"/><path d="M48.8 28.3 Q50.8 30.1 48.6 31.7" fill="none" stroke="#C09A6E" stroke-width="1.6" stroke-linecap="round"/><path d="M40.7 33.1 Q46.3 29.7 50.9 32.3 Q49.7 35.3 46.3 34.5 Q42.9 35.5 40.7 33.1 Z" fill="#ECF1F8" stroke="#8A94A8" stroke-width="1.2"/><path d="M45.4 45.1 L51.4 30.3" stroke="#241708" stroke-width="9.6" stroke-linecap="round" stroke-opacity="1.0"/><path d="M45.4 45.1 L51.4 30.3" stroke="#6E4E30" stroke-width="7.0" stroke-linecap="round" stroke-opacity="1.0"/><path d="M51.4 30.3 L53.3 16.4" stroke="#241708" stroke-width="8.6" stroke-linecap="round" stroke-opacity="1.0"/><path d="M51.4 30.3 L53.3 16.4" stroke="#6E4E30" stroke-width="6.0" stroke-linecap="round" stroke-opacity="1.0"/><circle cx="53.3" cy="16.4" r="3.6" fill="#E8C49A" stroke="#241708" stroke-width="1.8" fill-opacity="1.0" stroke-opacity="1.0"/><circle cx="53.3" cy="16.4" r="6.5" fill="#7FE4FF" fill-opacity="0.25"/><circle cx="53.3" cy="16.4" r="4.4" fill="#D8B96B" stroke="#8A6A20" stroke-width="1.6" fill-opacity="1.0" stroke-opacity="1.0"/><circle cx="53.3" cy="16.4" r="2.2" fill="#F4EBD0"/><path d="M53.3 16.4 L53.3 14.6 M53.3 16.4 L54.7 16.4" stroke="#8A6A20" stroke-width="0.9"/><path d="M22.460540561598226 48.842954519530146 L28.860540561598224 48.842954519530146 M25.660540561598225 45.64295451953014 L25.660540561598225 52.04295451953015" stroke="#EAFBFF" stroke-width="1.2" stroke-opacity="0.9"/><path d="M13.460540561598226 43.842954519530146 L17.860540561598224 43.842954519530146 M15.660540561598225 41.64295451953014 L15.660540561598225 46.04295451953015" stroke="#EAFBFF" stroke-width="1.2" stroke-opacity="0.9"/><path d="M28.860540561598224 55.842954519530146 L32.46054056159822 55.842954519530146 M30.660540561598225 54.04295451953015 L30.660540561598225 57.64295451953014" stroke="#EAFBFF" stroke-width="1.2" stroke-opacity="0.9"/></svg>